<?xml version="1.0" encoding="UTF-8"?>
<svg id="_Шар_2" data-name="Шар 2" xmlns="http://www.w3.org/2000/svg" viewBox="0 0 16 13">
  <defs>
    <style>
      .cls-1 {
        fill: #fff;
      }
    </style>
  </defs>
  <g id="_Шар_1-2" data-name="Шар 1">
    <path class="cls-1" d="M6.5,0c-.83,0-1.5.67-1.5,1.5v.5H1.5c-.83,0-1.5.67-1.5,1.5v8c0,.83.67,1.5,1.5,1.5h13c.83,0,1.5-.67,1.5-1.5V3.5c0-.83-.67-1.5-1.5-1.5h-3.5v-.5c0-.83-.67-1.5-1.5-1.5h-3ZM6.5,1h3c.28,0,.5.22.5.5v.5h-4v-.5c0-.28.22-.5.5-.5ZM8.39,7.91l6.61-1.76v5.35c0,.28-.22.5-.5.5H1.5c-.28,0-.5-.22-.5-.5v-5.35l6.61,1.76c.25.07.52.07.77,0ZM1.5,3h13c.28,0,.5.22.5.5v1.62l-6.87,1.83c-.08.02-.17.02-.26,0l-6.87-1.83v-1.62c0-.28.22-.5.5-.5Z"/>
  </g>
</svg>