<?xml version="1.0" encoding="UTF-8"?>
<svg id="_Шар_2" data-name="Шар 2" xmlns="http://www.w3.org/2000/svg" viewBox="0 0 14 14">
  <defs>
    <style>
      .cls-1 {
        fill: #fff;
      }
    </style>
  </defs>
  <g id="_Шар_1-2" data-name="Шар 1">
    <path class="cls-1" d="M0,1.5C0,.67.67,0,1.5,0h3c.83,0,1.5.67,1.5,1.5v3c0,.83-.67,1.5-1.5,1.5H1.5c-.83,0-1.5-.67-1.5-1.5V1.5ZM1.5,1c-.28,0-.5.22-.5.5v3c0,.28.22.5.5.5h3c.28,0,.5-.22.5-.5V1.5c0-.28-.22-.5-.5-.5H1.5ZM8,1.5c0-.83.67-1.5,1.5-1.5h3c.83,0,1.5.67,1.5,1.5v3c0,.83-.67,1.5-1.5,1.5h-3c-.83,0-1.5-.67-1.5-1.5V1.5ZM9.5,1c-.28,0-.5.22-.5.5v3c0,.28.22.5.5.5h3c.28,0,.5-.22.5-.5V1.5c0-.28-.22-.5-.5-.5h-3ZM0,9.5c0-.83.67-1.5,1.5-1.5h3c.83,0,1.5.67,1.5,1.5v3c0,.83-.67,1.5-1.5,1.5H1.5c-.83,0-1.5-.67-1.5-1.5v-3ZM1.5,9c-.28,0-.5.22-.5.5v3c0,.28.22.5.5.5h3c.28,0,.5-.22.5-.5v-3c0-.28-.22-.5-.5-.5H1.5ZM8,9.5c0-.83.67-1.5,1.5-1.5h3c.83,0,1.5.67,1.5,1.5v3c0,.83-.67,1.5-1.5,1.5h-3c-.83,0-1.5-.67-1.5-1.5v-3ZM9.5,9c-.28,0-.5.22-.5.5v3c0,.28.22.5.5.5h3c.28,0,.5-.22.5-.5v-3c0-.28-.22-.5-.5-.5h-3Z"/>
  </g>
</svg>