<?xml version="1.0" encoding="UTF-8"?>
<svg id="_Шар_2" data-name="Шар 2" xmlns="http://www.w3.org/2000/svg" viewBox="0 0 23.62 23.62">
  <defs>
    <style>
      .cls-1 {
        fill: #fff;
      }
    </style>
  </defs>
  <g id="_Шар_1-2" data-name="Шар 1">
    <path class="cls-1" d="M11.81,0C5.29,0,0,5.29,0,11.81s5.29,11.81,11.81,11.81,11.81-5.29,11.81-11.81S18.34,0,11.81,0ZM14.27,18.31c-.61.24-1.09.42-1.46.55-.36.12-.78.19-1.26.19-.73,0-1.31-.18-1.72-.54-.41-.36-.61-.81-.61-1.37,0-.21.02-.43.05-.66.03-.23.08-.48.14-.76l.76-2.69c.07-.26.12-.5.17-.73.05-.23.07-.44.07-.63,0-.34-.07-.58-.21-.71-.14-.14-.41-.2-.81-.2-.2,0-.4.03-.61.09-.21.06-.38.12-.53.18l.2-.83c.5-.2.97-.38,1.43-.52.45-.14.89-.22,1.29-.22.73,0,1.3.18,1.69.53.39.35.59.81.59,1.38,0,.12-.01.32-.04.62-.03.29-.08.56-.15.81l-.76,2.68c-.06.21-.12.46-.17.73-.05.27-.07.48-.07.62,0,.36.08.6.24.73.16.13.43.19.83.19.18,0,.39-.03.62-.09.23-.07.4-.12.5-.17l-.2.83ZM14.14,7.43c-.35.33-.78.49-1.27.49s-.93-.16-1.28-.49c-.36-.33-.53-.73-.53-1.19s.18-.87.53-1.2c.36-.33.79-.5,1.28-.5s.92.16,1.27.5c.36.33.53.73.53,1.2s-.18.86-.53,1.19Z"/>
  </g>
</svg>