<?xml version="1.0" encoding="UTF-8"?>
<svg id="_Шар_2" data-name="Шар 2" xmlns="http://www.w3.org/2000/svg" viewBox="0 0 258.72 142.2">
  <defs>
    <style>
      .cls-1 {
        fill: #f79f23;
        font-family: Arial-BoldMT, Arial;
        font-size: 32px;
        font-weight: 700;
      }

      .cls-1, .cls-2 {
        isolation: isolate;
      }

      .cls-3 {
        fill: none;
        stroke: #f79f23;
        stroke-miterlimit: 10;
        stroke-width: 8px;
      }
    </style>
  </defs>
  <g id="_Шар_2-2" data-name=" Шар 2">
    <g>
      <path class="cls-3" d="M123.44,91.31l-37.13,4.43c-.15.02-.29.07-.41.14l-40.41,25.2c-.65.41-1.5-.05-1.53-.82l-.57-18.29c-.02-.56-.49-.99-1.04-.97l-28.64,1.22c-.52.02-.98-.37-1.04-.89L4.01,24.51c-.06-.53.31-1.02.84-1.1L129.09,4.01c.63-.1,1.2.42,1.15,1.06l-5.93,85.32c-.03.48-.4.87-.88.92h.01Z"/>
      <g class="cls-2">
        <g class="cls-2">
          <text class="cls-1" transform="translate(88.04 130.15)"><tspan x="0" y="0">StoryForge</tspan></text>
        </g>
      </g>
    </g>
  </g>
</svg>