<?xml version="1.0" encoding="UTF-8"?>
<svg id="_Шар_2" data-name="Шар 2" xmlns="http://www.w3.org/2000/svg" viewBox="0 0 12 12">
  <defs>
    <style>
      .cls-1 {
        fill: #f79f23;
      }
    </style>
  </defs>
  <g id="_Шар_1-2" data-name="Шар 1">
    <g>
      <path class="cls-1" d="M6,6c1.66,0,3-1.34,3-3S7.66,0,6,0s-3,1.34-3,3,1.34,3,3,3ZM8,3c0,1.1-.9,2-2,2s-2-.9-2-2,.9-2,2-2,2,.9,2,2Z"/>
      <path class="cls-1" d="M12,11c0,1-1,1-1,1H1s-1,0-1-1,1-4,6-4,6,3,6,4ZM11,11c0-.25-.15-.99-.83-1.66-.65-.65-1.88-1.33-4.17-1.33s-3.52.68-4.17,1.33c-.68.68-.83,1.42-.83,1.66h10Z"/>
    </g>
  </g>
</svg>