<?xml version="1.0" encoding="UTF-8"?>
<svg id="_Шар_2" data-name="Шар 2" xmlns="http://www.w3.org/2000/svg" viewBox="0 0 275 280.5">
  <defs>
    <style>
      .cls-1 {
        fill: #fff;
      }

      .cls-2 {
        fill: none;
        stroke: #fff;
        stroke-linecap: round;
        stroke-miterlimit: 10;
        stroke-width: 24px;
      }
    </style>
  </defs>
  <g id="_Шар_2-2" data-name=" Шар 2">
    <g>
      <path class="cls-1" d="M122.4,13c29.2,0,56.7,11.4,77.3,32,20.7,20.7,32,48.1,32,77.3s-11.4,56.7-32,77.3-48.1,32-77.3,32-56.7-11.4-77.3-32c-20.7-20.7-32-48.1-32-77.3s11.4-56.7,32-77.3C65.7,24.4,93.2,13,122.4,13M122.4,0C54.8,0,0,54.8,0,122.4s54.8,122.4,122.4,122.4,122.4-54.8,122.4-122.4S190,0,122.4,0h0Z"/>
      <line class="cls-2" x1="208" y1="211.2" x2="263" y2="268.5"/>
    </g>
  </g>
</svg>