<?xml version="1.0" encoding="UTF-8"?>
<svg id="_Шар_2" data-name="Шар 2" xmlns="http://www.w3.org/2000/svg" viewBox="0 0 21 21">
  <defs>
    <style>
      .cls-1 {
        fill: #fff;
      }
    </style>
  </defs>
  <g id="_Шар_1-2" data-name="Шар 1">
    <g>
      <path class="cls-1" d="M9.26,1.68c.4-.24.9-.24,1.3,0l7.67,4.71c.12.07.27.04.34-.08l.52-.85c.07-.12.04-.27-.08-.34L11.34.41c-.87-.54-1.97-.54-2.85-.02L1.34,4.66c-.83.5-1.34,1.39-1.34,2.36v11.23c0,1.52,1.23,2.75,2.75,2.75h2.95c.14,0,.25-.11.25-.25v-1c0-.14-.11-.25-.25-.25h-2.95c-.69,0-1.25-.56-1.25-1.25V7.02c0-.44.23-.85.61-1.07L9.26,1.68Z"/>
      <path class="cls-1" d="M9.5,11c0-.55.45-1,1-1s1,.45,1,1-.45,1-1,1-1-.45-1-1Z"/>
      <path class="cls-1" d="M20.75,11.75h-7.5c-.14,0-.25-.11-.25-.25v-1c0-.14.11-.25.25-.25h7.5c.14,0,.25.11.25.25v1c0,.14-.11.25-.25.25Z"/>
      <path class="cls-1" d="M13.25,16h7.5c.14,0,.25-.11.25-.25v-1c0-.14-.11-.25-.25-.25h-7.5c-.14,0-.25.11-.25.25v1c0,.14.11.25.25.25Z"/>
      <path class="cls-1" d="M9.5,15.25c0-.55.45-1,1-1s1,.45,1,1-.45,1-1,1-1-.45-1-1Z"/>
      <path class="cls-1" d="M13.25,20.25h7.5c.14,0,.25-.11.25-.25v-1c0-.14-.11-.25-.25-.25h-7.5c-.14,0-.25.11-.25.25v1c0,.14.11.25.25.25Z"/>
      <path class="cls-1" d="M9.5,19.5c0-.55.45-1,1-1s1,.45,1,1-.45,1-1,1-1-.45-1-1Z"/>
    </g>
  </g>
</svg>